<svg width="33" height="22" viewBox="0 0 33 22" fill="none" xmlns="http://www.w3.org/2000/svg">
<path d="M3.67773 11.25L10.0352 14.3809L9.39258 18.0449L0.587891 13.0273L1.03906 10.457L3.67773 11.25ZM10.9922 8.83008L3.91016 11.8516L0.65625 12.6855L1.16211 9.80078L11.6895 4.82422L10.9922 8.83008ZM22.7773 0.09375L13.207 21.709H10.3496L19.9473 0.09375H22.7773ZM29.75 11.7695L23.3242 8.625L23.9668 5.00195L32.8945 10.0195L32.4434 12.5898L29.75 11.7695ZM22.3672 14.2305L29.5039 11.1953L32.8398 10.3477L32.3477 13.2324L21.6699 18.209L22.3672 14.2305Z" fill="url(#paint0_linear_91_16)"/>
<defs>
<linearGradient id="paint0_linear_91_16" x1="2.5152e-07" y1="1.76471" x2="31.1511" y2="16.624" gradientUnits="userSpaceOnUse">
<stop stop-color="#0500FF"/>
<stop offset="1" stop-color="#00FFF0"/>
</linearGradient>
</defs>
</svg>
